<?xml version="1.0" encoding="UTF-8" standalone="no"?>
<svg xmlns="http://www.w3.org/2000/svg" version="1.1" width="100" height="50" viewBox="0 0 100 50">
  <rect width="100" height="50" fill="#f0f0f0"/>
  <path d="M 5 24 Q 27 40 49 22 T 95 35" stroke="#999" stroke-width="1.5" fill="none" opacity="0.6"/>
  <path d="M 14 10 Q 42 28 70 12 T 90 42" stroke="#aaa" stroke-width="1.3" fill="none" opacity="0.55"/>
  <circle cx="30" cy="32" r="1.3" fill="#888" opacity="0.65"/>
  <circle cx="72" cy="20" r="1.4" fill="#888" opacity="0.7"/>
  <circle cx="16" cy="18" r="1.2" fill="#888" opacity="0.6"/>
  <circle cx="55" cy="40" r="1.5" fill="#888" opacity="0.7"/>
  <circle cx="88" cy="28" r="1.3" fill="#888" opacity="0.65"/>
  <circle cx="42" cy="10" r="1.1" fill="#888" opacity="0.6"/>
  <circle cx="65" cy="45" r="1.4" fill="#888" opacity="0.7"/>
  <polygon points="78,12 82,15 78,18" fill="#ccc" opacity="0.5"/>
  <rect x="25" y="42" width="2" height="4" fill="#ddd" opacity="0.5" transform="rotate(60 26 44)"/>
  <text x="50" y="35" font-family="Arial, sans-serif" font-size="30" fill="#000" text-anchor="middle" transform="rotate(-12 50 35) skewX(5) translate(1, -2)">8</text>
</svg>