<?xml version="1.0" encoding="UTF-8" standalone="no"?>
<svg xmlns="http://www.w3.org/2000/svg" version="1.1" width="100" height="50" viewBox="0 0 100 50">
  <rect width="100" height="50" fill="#f0f0f0"/>
  <path d="M 8 24 Q 33 38 58 22 T 92 30" stroke="#999" stroke-width="1.7" fill="none" opacity="0.6"/>
  <path d="M 5 14 Q 32 32 59 16 T 95 36" stroke="#aaa" stroke-width="1.4" fill="none" opacity="0.55"/>
  <path d="M 14 40 Q 42 18 70 42 T 88 20" stroke="#bbb" stroke-width="1.2" fill="none" opacity="0.5"/>
  <circle cx="19" cy="30" r="1.4" fill="#888" opacity="0.7"/>
  <circle cx="71" cy="15" r="1.3" fill="#888" opacity="0.65"/>
  <circle cx="44" cy="38" r="1.5" fill="#888" opacity="0.7"/>
  <circle cx="80" cy="35" r="1.2" fill="#888" opacity="0.6"/>
  <circle cx="28" cy="12" r="1.3" fill="#888" opacity="0.65"/>
  <circle cx="62" cy="8" r="1.1" fill="#888" opacity="0.6"/>
  <circle cx="88" cy="45" r="1.4" fill="#888" opacity="0.7"/>
  <polygon points="24,42 27,45 21,45" fill="#ccc" opacity="0.5"/>
  <rect x="75" y="22" width="2" height="4" fill="#ddd" opacity="0.5" transform="rotate(-35 76 24)"/>
  <text x="50" y="35" font-family="Arial, sans-serif" font-size="30" fill="#000" text-anchor="middle" transform="rotate(12 50 35) skewX(3) translate(-1, -2)">?</text>
</svg>